<svg width="105" height="112" viewBox="0 0 105 112" fill="none" xmlns="http://www.w3.org/2000/svg">
<g clip-path="url(#clip0_443:4080)">
<path d="M52.1152 111.6C80.8197 111.6 104.23 86.5332 104.23 55.8001C104.23 25.066 80.8197 0 52.1152 0C23.4107 0 0 25.0671 0 55.8001C0 86.5332 23.4118 111.6 52.1152 111.6Z" fill="white"/>
<path d="M52.1152 111.6C80.8977 111.6 104.23 86.6177 104.23 55.8001C104.23 24.9826 80.8977 0 52.1152 0C23.3328 0 0 24.9826 0 55.8001C0 86.6177 23.3328 111.6 52.1152 111.6Z" fill="#00BA88" fill-opacity="0.26"/>
<path d="M93.2414 33.9585C81.831 32.6844 70.4121 31.4178 59.0015 30.1427C47.5907 28.8667 36.1722 27.5951 24.7545 26.3215C22.8211 26.1055 21.6109 27.723 22.0667 29.9125C23.6041 37.2991 25.1443 44.6904 26.6805 52.0698C28.2177 59.4513 29.7573 66.8442 31.2945 74.2255C31.7507 76.4148 33.2352 78.2069 34.6022 78.2069C42.6375 78.2069 50.68 78.2069 58.7153 78.2069H76.51V81.0257C76.51 81.4318 76.1181 81.6877 75.7336 81.6877H38.02C37.6357 81.6877 37.2963 82.116 37.2963 82.5218V84.9995C37.2963 85.4056 37.641 85.8212 38.02 85.8212H76.4314H79.4439C79.8287 85.8212 80.1668 85.4117 80.1668 84.9995V81.774V78.2071H82.8275C84.1866 78.2071 85.6917 76.7095 86.1727 74.8689C87.7909 68.6758 89.4126 62.473 91.0286 56.2796C92.6441 50.0908 94.2713 43.8863 95.8843 37.6916C96.3635 35.8526 95.175 34.1736 93.2414 33.9585ZM37.6231 70.8873C37.5777 70.8864 37.5174 70.8881 37.4645 70.8873C36.8302 70.8729 36.1803 70.0878 36.0218 69.1468C35.0778 63.5171 34.1305 57.8882 33.19 52.2581C32.2501 46.629 31.3108 40.9936 30.3656 35.3539C30.2085 34.4125 30.751 33.7098 31.5588 33.7911C31.6345 33.7985 31.7023 33.8105 31.7703 33.8172C32.5858 33.9042 33.3592 34.732 33.5001 35.6676C34.3406 41.2594 35.1647 46.8542 35.9994 52.4462C36.8334 58.0343 37.6789 63.6213 38.5143 69.2146C38.653 70.1442 38.2576 70.9019 37.6231 70.8873ZM45.8776 70.3484C45.8247 70.3476 45.7636 70.3502 45.7115 70.3484C45.0772 70.3345 44.4795 69.5703 44.3822 68.65C43.8006 63.1566 43.219 57.6624 42.6379 52.1692C42.0561 46.6704 41.4759 41.1717 40.8931 35.673C40.7964 34.7578 41.3768 34.0749 42.1996 34.157C42.2676 34.164 42.3434 34.1712 42.4108 34.178C43.2269 34.2599 43.9557 35.0723 44.0347 35.9869C44.5066 41.4442 44.986 46.9008 45.4615 52.3581C45.9371 57.8098 46.4106 63.2662 46.889 68.7183C46.9694 69.632 46.5118 70.3633 45.8776 70.3484ZM54.2448 70.5477C54.1996 70.5464 54.1387 70.5429 54.0858 70.542C53.4519 70.5272 52.8994 69.7789 52.8627 68.885C52.6426 63.5278 52.4248 58.1696 52.2056 52.8117C51.9867 47.4545 51.7612 42.0966 51.5411 36.7284C51.5049 35.8398 52.137 35.1771 52.9608 35.2541C53.0284 35.2606 53.1044 35.2682 53.1719 35.275C53.9877 35.3572 54.6717 36.1534 54.6896 37.0368C54.7999 42.3627 54.9166 47.6842 55.03 53.0001C55.1428 58.3209 55.2535 63.6374 55.3695 68.9528C55.3893 69.8471 54.886 70.5623 54.2448 70.5477ZM65.3305 38.0977C65.078 43.283 64.8392 48.4685 64.5905 53.6483C64.3411 58.8338 64.0885 64.0136 63.8425 69.1936C63.8016 70.0609 63.2538 70.7554 62.619 70.7408C62.5667 70.7399 62.514 70.7367 62.4535 70.7356C61.8192 70.7214 61.3206 69.9986 61.3434 69.1254C61.479 63.9035 61.623 58.6816 61.7663 53.46C61.91 48.2381 62.0468 43.0114 62.1893 37.7843C62.2129 36.9115 62.8986 36.27 63.7218 36.3522C63.79 36.359 63.8655 36.3662 63.9335 36.3731C64.7489 36.4549 65.3724 37.2302 65.3305 38.0977ZM75.9862 39.1538C75.3779 44.2037 74.7705 49.2527 74.1583 54.2963C73.547 59.3401 72.9391 64.3852 72.331 69.4286C72.2292 70.2754 71.6209 70.9531 70.9943 70.9394C70.9414 70.9381 70.8807 70.935 70.8207 70.9337C70.1939 70.9197 69.7405 70.2124 69.824 69.3604C70.3221 64.2743 70.8321 59.1943 71.3343 54.103C71.8363 49.0171 72.3322 43.9299 72.8373 38.8401C72.921 37.9922 73.6681 37.3623 74.4763 37.4442C74.5439 37.451 74.6202 37.4573 74.6949 37.4652C75.5025 37.5469 76.0878 38.3076 75.9862 39.1538ZM86.5511 40.6384C85.5756 45.5457 84.6066 50.4592 83.6364 55.3681C82.6661 60.2752 81.6999 65.1852 80.7289 70.0978C80.5675 70.9143 79.913 71.5756 79.2788 71.5612C79.2261 71.5604 79.1736 71.5573 79.1127 71.556C78.4861 71.5416 78.092 70.8563 78.2367 70.0298C79.1035 65.081 79.9547 60.129 80.8195 55.1795C81.6839 50.229 82.5511 45.2802 83.4173 40.3293C83.5633 39.4938 84.3383 38.8833 85.1542 38.9654C85.2218 38.9722 85.2973 38.9846 85.3657 38.9914C86.1731 39.0738 86.7158 39.807 86.5511 40.6384Z" fill="#00BA88"/>
<path d="M94.3201 37.0801L91.8463 46.2733L85.5666 45.6053C85.8944 43.9494 86.2225 42.2934 86.5515 40.6384C86.7162 39.8068 86.1737 39.0736 85.3657 38.9919C85.2973 38.9851 85.222 38.9725 85.1542 38.9659C84.3382 38.8837 83.5632 39.4943 83.4173 40.3298C83.1282 41.982 82.8395 43.6331 82.5502 45.2853L75.3402 44.518L75.9866 39.154C76.0882 38.3079 75.5029 37.5467 74.6947 37.4656C74.62 37.458 74.5436 37.4515 74.476 37.4447C73.6679 37.3625 72.9209 37.9925 72.8371 38.8406C72.6604 40.6258 72.4837 42.4107 72.3086 44.1954L65.0747 43.4264C65.159 41.65 65.2435 39.8742 65.3306 38.098C65.3726 37.2307 64.749 36.4554 63.9335 36.3734C63.8655 36.3664 63.79 36.3592 63.7218 36.3525C62.8985 36.2703 62.2125 36.9118 62.1893 37.7845C62.1404 39.5573 62.093 41.3309 62.0451 43.1034L54.8011 42.3338C54.7639 40.5687 54.7266 38.8033 54.6898 37.0371C54.6716 36.1539 53.9878 35.3574 53.1721 35.2753C53.1045 35.2685 53.0286 35.2609 52.961 35.2543C52.1369 35.1774 51.5048 35.84 51.5413 36.7287C51.6133 38.4899 51.6862 40.2502 51.7591 42.0101L44.4909 41.2369C44.3384 39.4871 44.1865 37.7364 44.0348 35.9865C43.9557 35.0721 43.2269 34.2595 42.4109 34.1776C42.3435 34.1708 42.2678 34.1636 42.1998 34.1567C41.377 34.0747 40.7964 34.7576 40.8933 35.6726C41.0783 37.419 41.2632 39.166 41.4482 40.9128L34.1702 40.1384C33.9477 38.6481 33.7248 37.1574 33.5009 35.6672C33.3598 34.7314 32.5866 33.9038 31.7711 33.8168C31.7033 33.8099 31.6355 33.7981 31.5596 33.7907C30.752 33.7096 30.2092 34.4121 30.3664 35.3535C30.6158 36.8405 30.8644 38.3273 31.1131 39.8134L25.9236 39.2615L22.0673 29.9124L94.3201 37.0801Z" fill="#0C8564"/>
<path d="M97.1306 32.8523L7.15301 23.6202L7.12024 10.2746C7.118 9.45413 6.50015 8.76643 5.7343 8.74507L3.3199 8.67838C2.55364 8.6568 1.91869 9.31092 1.92052 10.1311L1.96388 27.7363C1.96571 28.5567 2.58397 29.2449 3.34941 29.2662L3.45548 29.2691C3.59818 29.3369 3.7527 29.3818 3.91719 29.3985L96.438 38.8911C97.2712 38.9765 98.0359 38.3277 98.1375 37.4381L98.4587 34.6337C98.5611 33.7446 97.964 32.9373 97.1306 32.8523Z" fill="#00BA88"/>
</g>
<defs>
<clipPath id="clip0_443:4080">
<rect width="104.23" height="111.6" fill="white"/>
</clipPath>
</defs>
</svg>
