<svg width="104" height="104" viewBox="0 0 104 104" fill="none" xmlns="http://www.w3.org/2000/svg">
<g clip-path="url(#clip0_443:4017)">
<path d="M52 104C80.641 104 104 80.64 104 52C104 23.359 80.641 0 52 0C23.359 0 0 23.36 0 52C0 80.64 23.36 104 52 104Z" fill="white"/>
<path d="M52 104C80.641 104 104 80.64 104 52C104 23.359 80.641 0 52 0C23.359 0 0 23.36 0 52C0 80.64 23.36 104 52 104Z" fill="#C30052" fill-opacity="0.28"/>
<path d="M52.0005 25.9277C77.4187 25.9277 98.0223 46.5321 98.0223 71.9496C98.0223 73.5455 97.9406 75.1216 97.783 76.6753C88.995 92.9454 71.7897 104 52.0005 104C32.2112 104 15.0067 92.9464 6.21873 76.6763C6.06009 75.1226 5.97864 73.5455 5.97864 71.9498C5.97864 46.5313 26.584 25.9277 52.0005 25.9277Z" fill="#ED2E7E" fill-opacity="0.4"/>
<path d="M80.7541 36.0169C89.3122 42.8742 95.3684 52.7223 97.3338 63.9795C97.1949 63.7666 97.0533 63.4869 96.9107 63.0724C96.0119 63.3669 95.9828 63.3913 94.9217 63.5678L94.8748 63.6326C94.4527 64.234 94.8963 63.9797 94.1543 64.6064C93.2715 65.3494 92.6963 66.3636 91.7093 66.965C91.59 68.0158 91.7966 68.2522 91.5319 69.5019C91.4288 69.9626 90.9128 71.201 90.3085 71.1072C90.1172 71.0714 89.3065 69.0658 89.1152 68.5112C88.7906 67.5675 88.4227 66.8712 88.1873 65.7857C88.0551 65.2068 87.9659 64.0979 87.8336 63.7085C87.2003 63.8024 87.2285 64.2048 86.6242 63.7798C86.1973 63.4721 86.3896 63.2844 86.1524 62.8237C85.6523 62.3519 85.1363 61.88 84.6212 61.4079C84.2225 61.2786 82.6905 61.5018 82.0411 61.4313C80.8778 61.3243 80.7755 61.3956 80.0832 60.464C78.859 60.5242 78.963 60.9828 77.7686 59.9564C76.988 59.2959 77.1353 58.2339 76.001 58.8354C75.9579 59.8027 76.4288 60.0165 76.8558 60.464C77.1645 60.8065 77.5482 61.0419 77.7095 61.5016C77.7245 61.5148 77.7987 61.9501 77.8137 62.0092C78.9189 62.0805 79.1834 61.5503 79.7877 61.102C80.3777 61.6556 79.8027 61.7512 80.6574 62.1865C81.3349 62.5298 81.2026 62.3291 81.6434 62.8826C81.8648 63.6257 80.1273 65.6437 79.5512 66.0095C79.1094 66.2929 78.8748 66.1278 78.4761 66.4562C77.8868 66.9535 78.5502 66.8822 77.5192 67.2594C76.414 67.6609 75.3228 68.51 74.1595 68.5813C73.909 67.8956 73.6586 67.2013 73.4079 66.5052C72.6706 64.1335 72.7004 65.0538 71.9481 63.8266C71.5944 63.2946 71.7417 62.9531 71.5063 62.4813C71.3429 62.1276 71.0943 61.9737 70.8721 61.5384C70.5335 60.8656 70.1366 59.8159 69.355 59.9219C69.1927 60.452 70.0765 62.2458 70.2968 62.6819C70.5183 63.1191 70.8719 63.3078 70.9751 63.9334C71.1223 64.7936 70.946 64.6868 71.4169 65.2647C72.4049 66.4552 71.3728 66.2442 72.9058 67.4113C74.0541 68.2858 73.7605 68.5445 74.2464 69.7135C74.998 69.9246 77.2374 68.9236 77.6191 69.2181C78.0759 70.0314 77.09 71.329 76.8395 72.0373C76.0138 74.409 74.57 74.3742 73.4648 76.1906C72.8615 77.1711 72.581 77.3004 72.021 78.4806C71.3868 79.8137 73.3025 83.5065 72.1542 85.0535C71.9038 85.4064 71.0931 85.6192 70.0771 86.6936C69.0009 87.8607 70.1061 87.6608 69.6934 89.6066C69.3698 90.0551 68.9719 90.0784 68.5741 90.3984C68.4269 90.8572 68.5451 91.222 68.2936 91.7898C68.0281 92.4737 67.9849 92.1079 67.6004 92.6632C67.3209 93.0985 67.3507 93.2758 67.0261 93.6774C66.7466 94.0442 66.5983 94.1484 66.3347 94.3857C65.0522 95.5659 62.2968 95.6006 62.0613 95.4355C61.4122 94.8819 61.855 94.7402 61.6935 93.9616C61.5359 93.2766 61.1729 92.7034 60.8698 92.1753L60.8389 92.1209C60.6925 91.8619 60.5594 91.6132 60.4853 91.3768C59.9543 89.7012 60.1467 88.4291 59.2188 86.7291C58.0545 84.5337 59.8662 83.3901 59.792 82.1507C59.763 81.8204 59.6456 81.6197 59.6147 81.3597C59.3943 79.9908 59.2629 78.7646 58.349 77.6904C57.3462 76.5233 57.4793 76.9352 57.803 75.0129C58.215 72.8063 57.2729 73.372 55.9463 73.3137C55.2971 71.3089 54.0296 72.2863 52.7631 72.8774C51.9666 73.2424 51.6729 72.7714 50.7733 72.9008C48.7693 73.1719 50.3463 74.034 47.6641 71.9101C46.5438 71.0245 47.2954 71.473 46.633 70.3639C46.4126 69.9624 45.7342 69.4324 45.4236 69.0298C44.4076 67.7558 45.6159 66.4694 45.4386 65.0069C45.1291 62.2928 44.687 64.6523 46.2052 61.3724C47.0017 59.6263 48.2092 59.6152 48.5198 58.8356C48.7853 58.1403 48.608 57.644 49.1091 57.007C49.5509 56.4883 50.1852 56.5943 50.4357 55.78C50.7893 54.7771 50.1111 54.6486 49.3746 54.6232C49.0658 53.5734 49.0658 53.8322 49.3004 52.8649C49.4337 52.3218 49.3155 52.0618 49.4337 51.5196C49.7282 50.1629 52.0418 51.5084 52.7052 50.9529C53.014 50.375 53.0588 49.8093 52.7052 49.2538C52.3355 48.6992 51.8505 48.7697 51.6 48.2396C52.16 47.8624 51.7473 48.1926 52.2333 48.0858C52.8076 47.9564 52.7334 47.7902 53.4117 47.6617C54.0168 47.5424 54.4005 46.9889 54.9887 46.6119C55.8285 46.0688 55.4305 45.5837 56.4476 45.4204C58.0829 45.1362 57.0218 45.1839 57.2 43.6613C57.4496 43.5675 57.685 43.4596 57.9204 43.3546C58.4364 44.0274 57.7882 43.7562 58.4065 44.2037C58.5688 44.1098 58.7602 44.016 58.9375 43.9221C58.8483 43.1895 58.5105 43.331 58.2891 42.4239C57.4784 42.5533 57.1839 43.2372 56.5357 42.9896C55.9024 42.7542 55.8725 41.845 55.9024 41.0898C56.1378 40.5241 57.3161 40.2173 57.7722 40.0747C58.5105 39.8271 58.4063 39.3317 59.0837 38.6581C59.9683 37.7735 59.3192 38.6703 59.7469 37.5267C60.7199 37.4902 60.2629 37.4554 60.8371 37.1609L60.8662 37.1497L60.9253 37.1254C61.2649 36.9716 61.7067 36.9369 62.1487 36.7839C63.769 36.2416 64.4322 36.5127 65.6105 36.995C66.5244 37.373 69.2798 37.3844 69.4862 38.542C68.8238 39.2362 68.1904 38.7297 67.2317 38.7896C67.408 39.6856 67.4813 39.6856 68.2928 39.9332C68.4261 39.5082 68.2337 39.6742 68.4551 39.4022C68.7206 39.4613 68.9861 39.5082 69.2508 39.557C69.5173 38.6478 69.8258 38.7782 70.7256 38.6714C70.5774 38.0455 70.4151 38.2229 70.7539 37.7276C71.6836 37.8233 70.9312 37.7408 71.388 38.4839C72.0364 38.4004 72.6706 37.6807 73.5684 37.5869C74.1284 37.5278 74.0993 37.7406 74.894 37.6572C75.5424 37.5869 75.5123 37.3504 76.1625 37.6224C76.3971 37.1853 76.1625 37.1965 76.7367 37.0914C77.6195 36.9377 78.3869 37.4798 79.2408 37.5991C78.6085 36.8213 78.0034 36.9732 78.7848 35.6759C79.7718 35.4752 79.86 35.6168 80.2878 36.3608C80.5299 36.2247 80.6331 36.0878 80.7531 36.0183L80.7541 36.0169ZM31.1924 99.6653C29.6595 98.9954 28.1659 98.2534 26.7146 97.4446C26.6967 97.3844 26.6808 97.3188 26.6666 97.2429C26.4462 95.9323 27.0062 95.7905 26.3861 93.6073C25.9798 92.1635 26.1432 88.7429 25.7133 86.9893C25.6449 86.7098 25.5604 86.4724 25.4582 86.2914C25.0605 85.6318 24.0875 85.3251 23.3079 84.7931C23.2628 84.7828 23.2338 84.7698 23.2198 84.7462C22.1436 83.991 21.1268 81.029 20.272 79.9212C19.8751 79.3892 19.6247 79.6246 19.4473 78.7879C19.256 78.0213 19.5505 78.1517 19.802 77.5129C18.4904 75.1065 21.4963 75.1412 20.8782 72.2506C20.7449 71.7196 20.363 70.9766 20.0384 70.742C19.4193 71.0131 19.7128 71.1651 19.3893 71.6849C18.8892 71.4015 18.3883 71.1173 17.9022 70.8358C16.3842 69.3723 17.1939 70.4334 16.7679 69.4783C15.8541 67.4725 14.9835 68.5945 13.8933 67.6029C13.4064 67.1891 13.3183 66.5399 12.5086 66.6591C11.2852 66.8243 11.9626 67.0128 10.6961 66.4217C9.61995 65.9141 8.50074 65.325 7.74836 64.6401C7.71931 63.5781 8.10302 63.5302 7.43961 62.5404C7.32241 62.3565 7.18997 62.1857 7.05591 62.0224C9.12921 52.5889 14.0942 44.2408 20.9767 37.9551C21.5115 38.1418 22.2188 38.0189 22.7498 37.9974C22.9403 37.6437 23.0585 37.336 23.3981 37.2064C23.5304 37.1595 23.6927 37.1483 23.9133 37.1595C23.9423 37.335 23.9874 37.5131 24.0315 37.6897C24.0315 37.7029 24.0615 37.8201 24.0465 37.7967C24.0615 37.7723 24.0756 37.867 24.0896 37.9017C25.0193 37.3594 24.2378 37.3472 24.7379 36.3677C23.9573 36.2139 24.0605 36.3076 23.5736 35.8124C24.0465 35.2936 24.9583 35.1163 25.6368 35.164C25.5917 35.6369 25.3713 35.6247 25.5494 36.0252C26.0796 35.695 26.4483 34.8112 27.302 34.9755C27.4643 35.0927 27.6566 35.1997 27.833 35.3058C27.3901 35.7185 26.7278 35.7429 26.1535 35.9785C25.9021 38.5397 26.9642 36.3923 26.6095 38.1503C27.2429 38.1034 27.862 37.6427 28.0974 37.1709C27.862 36.8642 27.5224 36.8642 27.3318 36.4981C27.4801 36.0263 27.7972 35.6688 28.2457 35.4559C28.5488 35.3123 28.9109 35.2355 29.3219 35.2355C34.0071 35.2712 31.7817 35.4831 33.2265 36.1447C33.5501 36.2854 34.1243 36.3576 34.3167 36.6401C34.6112 37.0886 34.3317 37.5125 34.8028 37.8672C35.2155 38.1739 35.2746 37.855 35.8198 38.5407C35.7026 38.9291 35.4221 39.3307 34.8479 39.3429C34.0522 39.3541 34.5233 38.8109 33.6685 38.8944C33.6846 39.6955 34.4792 40.0032 33.7417 40.4396C33.0933 40.8298 33.5052 40.2988 33.0202 40.57C33.0051 40.5822 32.9611 40.6057 32.947 40.6179C32.918 40.6413 32.8879 40.677 32.8729 40.7004C32.7855 40.795 32.7106 40.8777 32.6383 40.9612C31.46 40.6413 31.6814 40.7839 30.9731 40.0051C30.7086 39.7105 30.6643 39.6392 30.1925 39.6748C29.8979 39.686 29.515 39.8156 29.2345 39.5566C29.8096 38.8369 30.0901 39.5332 30.9298 39.1073C31.0771 39.036 32.0049 38.3173 32.1532 38.1512C31.9028 37.5844 32.1232 38.0555 31.7563 37.6905C30.9306 36.8536 30.6934 37.0646 29.576 37.0646C29.0515 37.6679 28.6593 38.4138 28.0881 38.7412C27.7428 38.9393 27.3329 38.9842 26.7905 38.7524C27.041 39.7676 27.6893 38.9888 27.7474 40.2151C27.3205 40.1326 27.0991 39.9196 26.6573 40.0735C25.7136 40.4272 26.5541 40.3916 26.6272 40.5811C26.6272 40.5933 27.069 40.6402 26.6272 40.8054C26.1403 40.9817 26.5531 40.7107 25.6112 40.1562C25.7434 39.9208 25.8767 39.673 26.0089 39.4254C25.2433 39.6618 24.2846 40.039 23.3868 40.4751C22.3689 40.9827 21.4118 41.5616 20.8367 42.0916C20.8217 42.9772 20.984 42.3861 21.0732 43.4379C22.4428 43.5195 22.001 43.9313 23.3717 44.3217C23.6354 44.394 23.9758 44.4643 24.3888 44.5346C24.3888 45.1959 23.7987 45.6914 24.2104 46.3763C25.1684 47.047 25.1974 45.7383 25.4338 44.9014C28.6771 44.224 27.1141 43.2709 27.952 41.4865C28.0777 41.22 28.2559 40.9358 28.513 40.6289C28.7627 40.6411 29.7795 40.7481 30.0009 40.794C30.7383 40.9234 30.3405 41.1007 31.1362 41.4546C31.1211 42.0926 30.7976 42.9181 31.7403 42.7651C32.4626 42.6366 32.3013 42.069 33.1841 41.9272C33.581 42.8598 33.4786 43.2614 33.6551 44.3816C35.7774 45.2081 34.8335 45.8799 34.4207 47.4271C34.6872 47.5564 34.9659 47.6747 35.2464 47.7921C35.2324 48.2406 35.2163 48.6777 35.2023 49.1148C35.1583 49.1148 32.932 48.6298 32.7856 48.5839C33.1242 47.6156 33.7435 47.6044 34.1412 46.6137C33.3456 46.7545 33.4039 47.0021 32.8296 47.1794C32.3145 47.3332 31.9168 47.2264 31.3716 47.2977C31.1803 47.9339 31.3566 46.7423 31.4167 47.5556C31.4457 47.8634 31.594 47.5688 31.3866 47.8981C30.6493 47.5556 30.9006 46.7535 29.5299 47.4965C29.8394 47.6381 30.1482 47.7677 30.4728 47.8981C30.4297 48.8053 30.3556 48.1213 30.164 48.7238C29.6922 50.269 31.4455 49.3131 31.9026 49.2314C31.7843 50.0457 31.2834 50.0457 30.576 50.269C29.7964 50.5054 29.5599 50.8243 28.9406 50.9661C28.9406 49.9978 28.7941 50.8123 29.2201 50.1404C28.601 50.1985 28.1439 50.4819 27.5549 50.7305L27.4968 50.753C26.7397 51.0618 26.6252 51.1077 26.538 52.075C25.8897 52.2748 25.1383 52.5009 24.6813 52.9728C24.2253 53.4091 23.7674 53.8444 23.3246 54.2693C23.2815 54.3051 23.2505 54.3406 23.2232 54.3642C23.3855 55.5791 23.2232 55.6026 22.4849 56.0763C21.8666 56.4761 21.6602 56.4647 21.086 56.9723C19.2442 58.6245 20.129 57.8561 20.2304 60.7007C19.8477 60.5835 19.4798 60.4531 19.1262 60.3235C18.8457 58.4348 19.2284 59.0617 17.7114 58.6243C16.0753 58.1525 16.2957 58.9546 15.6184 59.0962C14.8669 59.2603 14.4982 58.4112 13.408 59.1195C12.8048 59.5315 12.2297 59.8035 12.0824 60.5343C11.9061 61.4199 11.5082 62.0673 11.5665 63.0478C11.6707 65.7038 14.0865 65.8558 14.7056 64.6173C15.1175 63.7916 15.0152 63.3433 16.3558 63.5554C16.488 64.2637 16.2816 64.7825 16.1043 65.3258C15.9871 65.6439 15.6625 66.2218 15.8248 66.66C16.7828 67.0493 16.8118 66.3167 18.0793 67.0719C18.1685 68.3337 17.5051 69.7495 18.477 70.4813C19.2276 71.0359 19.2727 70.5405 19.935 70.4232C20.6724 70.2939 20.5402 70.7535 21.2184 70.8604C21.6011 70.3875 21.4388 70.6841 21.6903 70.1041C22.132 69.1031 22.2495 69.574 23.2964 68.9614C23.3985 68.9022 23.4869 68.8421 23.5909 68.7718C23.7081 69.0195 23.8413 69.2559 23.9577 69.4915C24.7243 68.5833 24.8125 69.4682 25.6971 69.7158C26.078 69.82 26.3481 69.8573 26.5573 69.8602C27.2 69.8695 27.2656 69.5571 28.1429 69.8677C28.2471 69.9164 28.3794 69.9512 28.4976 69.9869C28.5116 69.9869 28.5557 70.0103 28.5557 70.0349C28.5717 70.0471 28.6148 70.0818 28.6298 70.095C28.7771 70.2591 28.7931 70.4253 28.9103 70.6016C29.5144 71.1795 30.1187 71.7584 30.708 72.3241C31.8713 72.7848 31.8713 71.9225 33.1979 73.2079C33.7579 73.7389 33.5066 73.7285 33.8162 74.4116C33.8613 74.5187 33.9495 74.6237 34.0076 74.7541C34.1258 75.073 34.258 75.3789 34.3913 75.6856C34.9945 76.4766 35.82 75.9812 36.6598 76.7955C37.1458 77.2673 36.778 77.1258 37.8531 77.3143C39.5183 77.5854 38.871 77.4325 40.1377 78.3884C40.6237 78.742 40.7409 78.5413 41.1978 78.8481C41.8319 79.7327 41.6696 80.6888 41.1397 81.4676C39.5035 83.8506 40.0635 83.4612 39.9894 85.3497C39.9303 86.4342 39.6207 88.6765 38.6037 88.9476C34.9062 89.9872 37.0567 90.7067 36.0847 92.5352C35.8052 93.055 35.5978 93.1844 35.4215 93.5982C34.686 95.3197 35.2011 95.8986 33.0198 95.5092C33.2271 95.8742 33.0939 95.6264 33.3003 95.9567C33.9486 96.9595 34.0518 97.7157 32.7252 97.9615C31.62 98.1744 32.0919 97.9615 31.9887 99.1886C31.5609 99.3659 31.3696 99.1886 31.0899 99.472L31.1941 99.6661L31.1924 99.6653ZM21.4812 37.5038C21.7664 37.4662 21.7654 37.3425 22.5123 37.1613C22.4532 36.9137 22.4081 36.9137 22.35 36.8199L22.3266 36.7729C22.0425 37.013 21.7599 37.258 21.4812 37.5048V37.5038ZM60.8674 51.1865L60.8383 51.1658C60.7351 51.0955 60.6328 51.025 60.5446 50.9425C59.8962 50.3636 59.7622 49.8459 59.0417 49.9753C59.0256 50.5184 59.1008 50.541 59.3653 50.8956C60.3673 52.1463 60.0577 51.7221 60.8381 52.1818L60.8672 52.1987C61.052 52.3047 61.2659 52.453 61.5596 52.6659C60.5576 53.5486 61.4865 53.6435 60.8672 53.939L60.8381 53.9531C60.778 53.9756 60.7209 54 60.6768 54.0233C60.4695 53.5035 60.9265 53.7522 60.3963 52.9969C60.1018 52.6076 59.8221 52.4893 59.3653 52.2754C58.215 51.7331 58.3633 51.3092 57.656 50.6007C56.8595 50.6251 57.0377 50.8727 56.4776 51.156C55.8002 51.4853 55.9034 51.0979 55.107 51.1672C54.4586 52.3128 55.3865 51.3567 54.2081 52.3004C52.7934 53.3971 53.9577 54.5417 51.6892 54.8852C51.5269 54.9086 51.4678 54.8852 51.3065 54.9433C50.8777 55.0962 51.1281 54.9666 50.8777 55.2145C51.0701 55.6638 50.8046 55.5917 51.571 55.6985C52.9707 55.8862 53.148 55.0258 54.1651 54.8129C54.6652 54.7069 57.8043 54.5765 58.0248 54.6356C58.7023 55.3918 58.1431 55.9228 58.1431 56.5589C58.8814 56.9483 59.9265 57.043 60.3543 57.4446C60.8404 57.9042 60.6047 57.8329 60.8404 57.9156L60.8694 57.925C60.9586 57.9504 61.0872 57.9963 61.3122 58.0816C61.9015 58.2815 61.8714 58.3997 62.5046 58.4466C63.0796 56.5232 62.4895 56.7241 65.26 57.6079C68.1478 58.5536 66.851 57.6914 68.0745 57.8208C68.6796 57.8809 68.5173 58.0684 69.357 57.9623C69.5183 57.6321 70.7116 54.6345 69.1646 55.0128C68.7078 55.13 69.0182 55.2951 68.369 55.13C67.6916 54.9545 68.3399 54.8241 67.5894 54.9293C66.851 55.0363 65.9683 55.6855 65.393 53.4554C65.1726 52.6522 64.7739 51.9571 63.861 53.171C64.0965 53.5838 64.2588 53.6195 64.5234 54.0211C64.4503 54.1383 64.1998 54.4339 64.1115 54.5287C63.6114 55.0241 64.3189 54.7885 63.5074 54.8937C63.0656 54.5634 63.1546 54.1385 62.7268 53.5492C61.9752 52.4505 62.4613 52.9592 62.0784 51.9084C61.7772 51.6439 61.2773 51.4459 60.869 51.1861H60.8674V51.1865ZM76.6045 82.9524C75.9571 83.2827 75.868 84.0389 75.3821 84.4628C74.8519 84.9469 74.1436 84.7237 73.9383 85.6196C73.6728 86.7399 74.3801 86.3984 73.5997 87.8609C73.3202 88.4033 73.3051 89.7597 73.7329 90.1623C75.0136 91.3998 75.7069 88.2747 76.0014 87.2952C76.2228 86.5991 76.4292 85.8092 76.6646 85.1589C76.9 84.463 77.2389 83.8504 76.6045 82.9524ZM74.4833 50.0323C74.5864 51.4733 75.4402 52.027 76.0453 52.6874C75.9722 53.3723 75.8088 53.195 75.8239 54.1501C76.5462 54.6707 77.0753 54.988 78.0203 54.7298C78.1525 53.573 77.7838 53.6311 77.431 52.8412C77.4901 52.7465 77.6514 52.6291 77.6806 52.6057C77.9471 52.2521 77.8139 52.7465 77.9471 52.145C77.2547 51.9218 76.1347 51.2125 76.0473 50.2818C76.3859 50.0106 76.2827 50.1747 76.5324 50.0106C77.0776 49.6559 76.6656 50.1983 76.9892 49.5968C76.7097 49.0545 76.3999 48.9598 75.7227 49.231C75.4282 49.3492 74.6466 49.9038 74.4843 50.0331L74.4833 50.0323ZM68.4563 50.4106C68.0003 49.7744 68.0286 49.4544 67.1448 49.4311C66.7919 49.8091 66.3792 50.3748 66.1878 50.9529C65.8933 51.8263 66.0997 51.2241 66.1287 52.1688C66.1137 52.2035 66.1287 52.2523 66.1287 52.287C66.1137 52.8527 65.9804 52.18 66.0696 52.6998C66.7629 52.5572 66.2329 52.5694 66.7489 52.4042C67.2349 52.2391 68.7228 51.7906 69.1506 51.8976C70.1666 52.1331 71.0214 52.9362 72.1715 52.1331C72.1114 51.1067 70.8739 50.7173 70.0194 50.268C70.0645 49.3251 70.3139 50.0681 70.2548 49.1591C69.9603 49.1469 69.7829 49.1 69.5032 49.2182C68.84 49.5127 69.2087 49.5962 69.2087 49.7023C69.2378 50.2089 69.8719 49.5962 69.1947 50.2221C69.0033 50.3862 68.6928 50.3862 68.4573 50.4106H68.4563ZM51.2453 43.2606C51.2171 44.9128 51.7913 44.3572 52.3355 45.1726C52.0859 45.8687 52.041 45.3263 51.7623 46.045C51.5118 46.6473 51.8204 46.1051 51.6581 47.1539C52.0859 47.1782 52.7192 47.0253 53.2792 46.9775C54.0757 46.9062 54.0598 46.836 54.3404 46.0214C53.8986 45.4791 53.4566 44.9359 52.9997 44.3936C52.4237 43.5191 52.9997 44.1216 52.8234 43.3897C52.6912 43.1299 52.572 42.8718 52.4548 42.611C51.6882 42.8722 51.7623 42.8009 51.2453 43.2606Z" fill="#ED2E7E" fill-opacity="0.4"/>
<path d="M80.3685 40.3374L79.9229 39.8917L78.0858 38.0547L77.6402 37.609C76.1907 38.1589 74.3762 40.5352 73.6603 42.0345L73.8828 42.2577L75.7198 44.0948L75.9431 44.318C77.4423 43.6012 79.8187 41.7877 80.3685 40.3382V40.3374Z" fill="#ED2E7E" fill-opacity="0.27"/>
<path d="M80.368 40.3374L79.9224 39.8917L78.0853 38.0547L77.6397 37.609C77.3047 37.7366 76.9519 37.9608 76.5954 38.2489L79.728 41.3814C80.016 41.0258 80.2403 40.6721 80.3678 40.3382V40.3374H80.368Z" fill="white"/>
<path d="M83.4439 49.0727L82.9983 48.6271L81.1612 46.79L80.7155 46.3444C79.266 46.8942 77.4515 49.2706 76.7357 50.7698L76.959 50.9931L78.796 52.8301L79.0192 53.0534C80.5185 52.3366 82.8949 50.5231 83.4447 49.0727H83.4439Z" fill="#ED2E7E" fill-opacity="0.27"/>
<path d="M83.4445 49.0727L82.9989 48.6281L81.1618 46.7902L80.7161 46.3456C80.3812 46.4723 80.0284 46.6964 79.6719 46.9854L82.8045 50.118C83.0925 49.7623 83.3176 49.4087 83.4443 49.0738V49.0727H83.4445Z" fill="white"/>
<path d="M58.3647 18.334L58.8103 18.7796L60.6474 20.6167L61.093 21.0624C60.5432 22.5119 58.1668 24.3264 56.6676 25.043L56.4443 24.8198L54.6073 22.9827L54.384 22.7595C55.1009 21.2612 56.9144 18.8838 58.3639 18.334H58.3647Z" fill="#ED2E7E" fill-opacity="0.27"/>
<path d="M58.3645 18.334L58.8101 18.7796L60.6472 20.6167L61.0928 21.0624C60.9661 21.3973 60.742 21.751 60.453 22.1066L57.3202 18.9738C57.6759 18.6848 58.0295 18.4607 58.3645 18.334Z" fill="white"/>
<path d="M49.6291 15.2585L50.0748 15.7042L51.9119 17.5412L52.3575 17.9869C51.8077 19.4364 49.4313 21.2509 47.932 21.9667L47.7088 21.7435L45.8717 19.9064L45.6485 19.6832C46.3653 18.1849 48.1788 15.8075 49.6283 15.2577L49.6291 15.2585Z" fill="#ED2E7E" fill-opacity="0.27"/>
<path d="M49.63 15.2585L50.0757 15.7042L51.9135 17.5413L52.3582 17.9869C52.2314 18.3219 52.0074 18.6755 51.7193 19.0312L48.5859 15.8984C48.9414 15.6093 49.295 15.3851 49.63 15.2585Z" fill="white"/>
<path d="M43.1044 56.6721L48.4943 64.3352L50.2132 62.257L47.163 54.1988C47.5457 53.8685 46.8263 54.5234 48.4005 53.1068C49.9747 51.6902 56.8921 45.3312 63.1573 40.2376L81.2015 65.7451L82.847 64.0995L72.8732 32.3072C76.9497 28.9467 80.1038 26.2663 80.9537 25.2952C83.5515 22.3267 85.9016 18.3676 84.0469 14.6571C80.3354 12.8013 76.3773 15.1525 73.4088 17.7493C72.4369 18.5993 69.7575 21.7535 66.3968 25.8298L34.6044 15.8563L32.9589 17.5019L58.4655 35.5461C53.373 41.8123 47.0131 48.7285 45.5974 50.3029C44.1798 51.8771 44.8356 51.1576 44.5054 51.5403L36.4472 48.4902L34.369 50.209L42.0321 55.599C41.1999 57.0306 41.6738 57.5045 43.1054 56.6723H43.1044V56.6721Z" fill="white"/>
<path d="M43.1036 56.672L48.4936 64.3351L48.9081 63.8342L43.6834 56.2725L43.1044 56.6722H43.1036V56.672Z" fill="#C8CACC"/>
<path d="M34.869 49.7944L34.3681 50.2092L42.0312 55.5991L42.431 55.0202L34.8682 49.7944H34.869Z" fill="#C8CACC"/>
<path d="M63.1582 40.2372L81.2024 65.7446L81.8366 65.1095L64.224 39.3674L63.1582 40.2372Z" fill="#C8CACC"/>
<path d="M33.5919 16.8669L32.9578 17.5021L58.4644 35.5463L59.3342 34.4805L33.5909 16.868L33.5919 16.8669Z" fill="#C8CACC"/>
<path d="M82.4955 16.2064C82.1305 15.8413 81.6887 15.5844 81.1979 15.4314L80.9006 16.2618C81.2101 16.4466 81.501 16.6717 81.7665 16.9364C82.0309 17.2019 82.2562 17.4927 82.4411 17.8015L83.2714 17.5041C83.1185 17.0144 82.8615 16.5726 82.4965 16.2066H82.4955V16.2064ZM80.5347 15.2907C79.7777 15.1997 78.9473 15.3189 78.1245 15.635C78.8657 15.573 79.6105 15.6809 80.2944 15.9596L80.5347 15.2907ZM82.7433 18.4082C83.0228 19.0921 83.1298 19.8362 83.0679 20.5782C83.385 19.7554 83.5032 18.9252 83.4122 18.1679L82.7433 18.4082Z" fill="#ED2E7E" fill-opacity="0.4"/>
<path d="M37.5474 61.6669L37.5539 61.6604L37.6628 61.5554L37.7707 61.4512L37.8804 61.3452L37.99 61.2392L38.0997 61.1331L38.2104 61.0261L38.3211 60.919L38.4329 60.812L38.5454 60.7041L38.6571 60.5963L38.7696 60.4874L38.8822 60.3777L38.9957 60.268L39.1093 60.1573L39.2236 60.0466L39.339 59.9359L39.4544 59.8242L39.5697 59.7125L39.6861 59.5999L39.8025 59.4864L39.9197 59.3728L40.0369 59.2593L40.1541 59.1447L40.2724 59.0294L40.3906 58.914L40.5098 58.7976L40.629 58.6812L40.7491 58.564L40.8691 58.4458L40.9892 58.3276L40.3185 57.6447L40.1984 57.7619L40.0792 57.8791L39.96 57.9954L39.8407 58.1127L39.7225 58.228L39.6053 58.3434L39.4881 58.458L39.3709 58.5723L39.2545 58.6859L39.1381 58.7984L39.0217 58.9109L38.9063 59.0235L38.791 59.1352L38.6756 59.2469L38.5612 59.3576L38.4469 59.4683L38.3333 59.578L38.2198 59.6869L38.1072 59.7966L37.9947 59.9054L37.8822 60.0133L37.7705 60.1212L37.6587 60.2282L37.548 60.3352L37.4373 60.4413L37.3266 60.5473L37.2169 60.6533L37.1081 60.7584L36.9992 60.8644L36.8903 60.9686L36.8838 60.9751L37.548 61.6647L37.5474 61.6669ZM91.1873 61.2719L91.0737 61.5684L90.9602 61.8611L90.8466 62.1492L90.7331 62.4325L90.6187 62.712L90.5042 62.9868L90.3898 63.258L90.2754 63.5245L90.1609 63.7872L90.0455 64.0451L89.9311 64.3002L89.8158 64.5507L89.7004 64.7965L89.585 65.0386L89.5793 65.0498L90.4396 65.4711L90.4481 65.4542L90.5663 65.2056L90.6845 64.9533L90.8017 64.6972L90.92 64.4374L91.0372 64.1737L91.1544 63.9054L91.2716 63.6334L91.3879 63.3565L91.5043 63.077L91.6215 62.7918L91.7369 62.5028L91.8533 62.2101L91.9687 61.9127L92.0841 61.6107L91.1891 61.271L91.1873 61.2719ZM88.2442 67.5484L88.1851 67.6459L88.0679 67.8391L87.9507 68.0286L87.8335 68.2153L87.7152 68.3973L87.597 68.5756L87.4788 68.7511L87.3606 68.9228L87.2424 69.0916L87.1242 69.2567L87.0059 69.419L86.8867 69.5776L86.7685 69.7334L86.6492 69.8854L86.53 70.0345L86.41 70.1809L86.2907 70.3235L86.1715 70.4633L86.0523 70.5994L85.9322 70.7334L85.813 70.8638L85.6929 70.9914L85.5729 71.1161L85.4528 71.238L85.4321 71.2587L86.1028 71.9426L86.1319 71.9136L86.2605 71.7832L86.388 71.6499L86.5156 71.5138L86.6432 71.3749L86.7699 71.2333L86.8967 71.0889L87.0224 70.9406L87.1481 70.7895L87.2739 70.6347L87.3996 70.4781L87.5243 70.3176L87.649 70.1543L87.7737 69.9882L87.8977 69.8183L88.0216 69.6449L88.1455 69.4686L88.2684 69.2884L88.3923 69.1054L88.5141 68.9187L88.637 68.7292L88.7589 68.536L88.8818 68.339L89.0037 68.1383L89.0618 68.0398L88.2409 67.5464L88.2442 67.5484ZM83.2776 72.9806L83.2747 72.9824L83.1518 73.0566L83.0289 73.1289L82.9061 73.1983L82.7832 73.266L82.6593 73.3316L82.5364 73.3944L82.4125 73.4563L82.2886 73.5154L82.1647 73.5727L82.0407 73.6282L81.916 73.6816L81.7913 73.7332L81.6666 73.7829L81.5419 73.8317L81.4161 73.8776L81.2904 73.9227L81.1647 73.9657L81.0389 74.007L80.9122 74.0474L80.7854 74.085L80.6579 74.1215L80.5311 74.1573L80.4036 74.1902L80.276 74.2221L80.1474 74.2521L80.0188 74.2812L79.8903 74.3084L79.7609 74.3346L79.6315 74.359L79.5021 74.3824L79.3717 74.4049L79.2413 74.4256L79.1109 74.4453L78.9795 74.464L78.9719 74.465L79.0938 75.4155L79.1099 75.4126L79.2506 75.3929L79.3904 75.3722L79.5293 75.3496L79.6691 75.3263L79.8088 75.3009L79.9486 75.2747L80.0875 75.2465L80.2264 75.2164L80.3644 75.1855L80.5033 75.1526L80.6422 75.1179L80.7812 75.0813L80.9201 75.0437L81.057 75.0043L81.1949 74.9631L81.3318 74.92L81.4687 74.8749L81.6067 74.828L81.7436 74.7793L81.8797 74.7287L82.0166 74.6761L82.1527 74.6216L82.2888 74.5654L82.4249 74.5063L82.561 74.4453L82.696 74.3826L82.8311 74.3178L82.9662 74.2511L83.1013 74.1817L83.2363 74.1104L83.3704 74.0362L83.5045 73.9603L83.6385 73.8825L83.7718 73.8018L83.7746 73.8L83.2745 72.9838L83.2776 72.9806ZM76.1698 74.6251H76.1538L76.0159 74.6241L75.8769 74.6222L75.738 74.6204L75.5982 74.6176L75.4585 74.6147L75.3187 74.6111L75.178 74.6074L75.0372 74.6027L74.8956 74.5981L74.754 74.5934L74.6125 74.5887L74.4709 74.583L74.3283 74.5774L74.1847 74.5727L74.0411 74.567L73.8975 74.5613L73.7539 74.5548L73.6102 74.5491L73.4658 74.5434L73.3214 74.5377L73.176 74.5321L73.0305 74.5264L72.8851 74.5207L72.7386 74.515L72.5922 74.5093L72.4449 74.5036L72.2976 74.499L72.1504 74.4943L72.0021 74.4896L71.8538 74.4849L71.7055 74.4813L71.5564 74.4776L71.4074 74.4748L71.3923 74.4738L71.3755 75.4317H71.3887L71.5351 75.4345L71.6816 75.4382L71.828 75.4419L71.9735 75.4465L72.1199 75.4512L72.2664 75.4559L72.4118 75.4605L72.5572 75.4662L72.7027 75.4719L72.8481 75.4776L72.9925 75.4833L73.137 75.489L73.2814 75.4947L73.4258 75.5004L73.5702 75.506L73.7147 75.5117L73.8591 75.5174L74.0035 75.5231L74.1479 75.5288L74.2915 75.5345L74.4351 75.5402L74.5796 75.5459L74.7222 75.5505L74.8658 75.5552L75.0094 75.5599L75.153 75.5635L75.2966 75.5672L75.4402 75.5708L75.5828 75.5737L75.7254 75.5765L75.868 75.5784L76.0106 75.5802L76.1532 75.5812H76.1692L76.1729 74.6233L76.1698 74.6251ZM68.4728 74.5398L68.3489 74.5491L68.1931 74.5623L68.0355 74.5763L67.8797 74.5914L67.7221 74.6074L67.5644 74.6253L67.4068 74.644L67.2492 74.6637L67.0905 74.6844L66.9319 74.7078L66.7724 74.7321L66.613 74.7583L66.4535 74.7845L66.2941 74.8136L66.1336 74.8437L65.9732 74.8745L65.8119 74.9074L65.6506 74.9422L65.4893 74.9787L65.327 75.0171L65.1647 75.0575L65.0014 75.0988L64.8391 75.141L64.6758 75.1861L64.5125 75.233L64.3492 75.2818L64.185 75.3324L64.0209 75.385L63.8558 75.4394L63.6906 75.4967L63.6691 75.5042L63.9937 76.4059L64.0069 76.4012L64.1627 76.3478L64.3175 76.2972L64.4723 76.2474L64.627 76.1995L64.7818 76.1544L64.9366 76.1093L65.0904 76.0671L65.2441 76.0258L65.3979 75.9864L65.5517 75.9489L65.7046 75.9123L65.8576 75.8786L66.0105 75.8457L66.1625 75.8148L66.3144 75.7847L66.4674 75.7565L66.6193 75.7303L66.7712 75.7041L66.9232 75.6797L67.0743 75.6572L67.2262 75.6356L67.3774 75.6149L67.5285 75.5962L67.6796 75.5784L67.8297 75.5615L67.9798 75.5454L68.1309 75.5304L68.28 75.5172L68.4301 75.505L68.5541 75.4957L68.4789 74.5406L68.4728 74.5398ZM60.9767 76.7191L60.8491 76.7904L60.6793 76.8879L60.5095 76.9882L60.3397 77.0904L60.1689 77.1965L59.999 77.3043L59.8282 77.415L59.6584 77.5275L59.4876 77.6439L59.3167 77.7621L59.1451 77.884L58.9735 78.0087L58.8026 78.1363L58.631 78.2657L58.4594 78.3989L58.2877 78.535L58.1151 78.674L57.9424 78.8156L57.7697 78.96L57.5963 79.1072L57.4228 79.2592L57.2502 79.4129L57.0767 79.5696L57.0336 79.61L57.6867 80.3108L57.7232 80.2779L57.8902 80.1259L58.0572 79.9776L58.2233 79.8332L58.3895 79.6916L58.5546 79.5527L58.7208 79.4166L58.8849 79.2834L59.05 79.154L59.2142 79.0272L59.3783 78.9025L59.5424 78.7806L59.7057 78.6624L59.869 78.547L60.0324 78.4335L60.1947 78.3238L60.3569 78.2159L60.5192 78.1109L60.6815 78.0087L60.8428 77.9092L61.0041 77.8117L61.1646 77.7171L61.325 77.6242L61.4526 77.5529L60.9789 76.7199L60.9767 76.7191ZM54.993 81.6953L54.9762 81.7131L54.7999 81.9138L54.6282 82.1109L54.4566 82.305L54.2849 82.4974L54.1141 82.6869L53.9433 82.8746L53.7724 83.0594L53.6026 83.2414L53.4328 83.4216L53.264 83.6L53.0952 83.7755L52.9264 83.9489L52.7584 84.1198L52.5905 84.2886L52.4225 84.4547L52.2555 84.6188L52.0885 84.7811L51.9224 84.9406L51.7562 85.0982L51.7243 85.1273L52.3764 85.828L52.4121 85.7951L52.5829 85.6339L52.7538 85.4705L52.9246 85.3054L53.0954 85.1374L53.2671 84.9666L53.4387 84.7939L53.6104 84.6184L53.783 84.4421L53.9557 84.263L54.1291 84.082L54.3018 83.8982L54.4753 83.7115L54.6487 83.523L54.8232 83.3324L54.9977 83.1393L55.1722 82.9433L55.3477 82.7452L55.5232 82.5453L55.694 82.3501L55.7109 82.3323L54.994 81.6971L54.993 81.6953ZM49.5806 86.9802L49.4652 87.0712L49.3057 87.1959L49.1453 87.3188L48.9858 87.4398L48.8264 87.5591L48.6677 87.6763L48.5101 87.7906L48.3525 87.9032L48.1948 88.0139L48.0382 88.1227L47.8816 88.2298L47.725 88.3348L47.5692 88.438L47.4144 88.5394L47.2597 88.6379L47.1049 88.7346L46.9511 88.8302L46.7973 88.9231L46.6436 89.0141L46.4916 89.1032L46.3397 89.1906L46.1878 89.2759L46.0366 89.3604L45.8855 89.442L45.7354 89.5219L45.6631 89.5594L46.1022 90.4114L46.1821 90.3701L46.3397 90.2856L46.4973 90.2003L46.6549 90.113L46.8136 90.023L46.9722 89.932L47.1309 89.8392L47.2903 89.7435L47.4498 89.6468L47.6102 89.5483L47.7707 89.4469L47.932 89.3447L48.0933 89.2397L48.2546 89.1327L48.4169 89.0238L48.5792 88.9131L48.7425 88.8006L48.9058 88.686L49.0691 88.5688L49.2332 88.4496L49.3973 88.3285L49.5615 88.2056L49.7266 88.0809L49.8928 87.9533L50.0579 87.8239L50.1723 87.7329L49.5804 86.9796L49.5806 86.9802ZM43.0958 90.6588L42.9701 90.7L42.8293 90.7451L42.6885 90.7882L42.5488 90.8304L42.4098 90.8708L42.2709 90.9092L42.133 90.9458L41.9951 90.9815L41.8582 91.0152L41.7221 91.0471L41.586 91.0772L41.4499 91.1062L41.3148 91.1335L41.1807 91.1597L41.0467 91.184L40.9126 91.2074L40.7804 91.2289L40.6481 91.2486L40.5159 91.2673L40.3845 91.2842L40.2541 91.3002L40.1237 91.3142L39.9943 91.3274L39.8649 91.3386L39.7355 91.348L39.6079 91.3565L39.4804 91.363L39.3528 91.3687L39.2261 91.3734L39.1003 91.3762L38.9756 91.378H38.8509L38.7262 91.377L38.6033 91.3752L38.5553 91.3734L38.5206 92.3303L38.5797 92.3321L38.7138 92.3349L38.8478 92.336H38.9829L39.119 92.3341L39.2551 92.3305L39.3912 92.3258L39.5281 92.3201L39.667 92.3116L39.805 92.3022L39.9439 92.2919L40.0828 92.2797L40.2226 92.2665L40.3634 92.2505L40.5041 92.2336L40.6457 92.2149L40.7865 92.1952L40.9291 92.1745L41.0717 92.1511L41.2153 92.1257L41.3589 92.1003L41.5033 92.0721L41.6477 92.0431L41.7921 92.0122L41.9376 91.9793L42.084 91.9445L42.2305 91.9088L42.3769 91.8712L42.5242 91.8318L42.6725 91.7906L42.8208 91.7475L42.969 91.7034L43.1181 91.6575L43.2672 91.6096L43.393 91.5684L43.0974 90.6573L43.0958 90.6588ZM35.8379 90.9561L35.791 90.9429L35.6813 90.911L35.5724 90.8773L35.4628 90.8426L35.3539 90.8068L35.245 90.7693L35.1372 90.7317L35.0311 90.6933L34.9241 90.6529L34.818 90.6116L34.713 90.5694L34.608 90.5263L34.5038 90.4822L34.4006 90.4372L34.2974 90.3912L34.1953 90.3433L34.0939 90.2954L33.9925 90.2466L33.8912 90.1969L33.7917 90.1463L33.6931 90.0947L33.5936 90.0413L33.4951 89.9878L33.3976 89.9326L33.3009 89.8771L33.2042 89.8209L33.1075 89.7628L33.0129 89.7047L32.918 89.6456L32.8242 89.5854L32.7303 89.5245L32.6375 89.4626L32.5447 89.4006L32.4537 89.3368L32.3627 89.273L32.2717 89.2074L32.1817 89.1418L32.0925 89.0752L32.0044 89.0076L31.9162 88.9399L31.8289 88.8715L31.7895 88.8396L31.1862 89.5836L31.2313 89.6202L31.3251 89.6943L31.4198 89.7675L31.5146 89.8398L31.6113 89.9121L31.708 89.9834L31.8055 90.0528L31.904 90.1223L32.0035 90.1908L32.1031 90.2574L32.2034 90.324L32.3048 90.3896L32.4061 90.4544L32.5083 90.5192L32.6115 90.582L32.7147 90.6439L32.8197 90.7049L32.9247 90.765L33.0307 90.8241L33.1378 90.8822L33.2448 90.9395L33.3527 90.9957L33.4616 91.051L33.5704 91.1044L33.6801 91.1578L33.7908 91.2104L33.9015 91.261L34.0133 91.3108L34.1258 91.3595L34.2393 91.4075L34.3519 91.4544L34.4662 91.5003L34.5816 91.5454L34.697 91.5885L34.8134 91.6315L34.9306 91.6728L35.0478 91.7132L35.166 91.7516L35.2852 91.7892L35.4045 91.8257L35.5245 91.8615L35.5714 91.8747L35.8379 90.9543V90.9561ZM29.826 86.8882L29.7866 86.8394L29.7172 86.7531L29.6477 86.6667L29.5801 86.5794L29.5124 86.4912L29.4458 86.4031L29.3802 86.3149L29.3146 86.2258L29.2498 86.1358L29.186 86.0458L29.1222 85.9558L29.0603 85.8648L28.9983 85.7738L28.9374 85.6818L28.8772 85.5898L28.8171 85.4969L28.759 85.4041L28.7009 85.3103L28.6437 85.2164L28.5874 85.1226L28.5311 85.0279L28.4757 84.9333L28.4212 84.8376L28.3678 84.7429L28.3152 84.6473L28.2626 84.5506L28.211 84.4549L28.1604 84.3582L28.1098 84.2615L28.0611 84.164L28.0123 84.0674L27.9644 83.9699L27.9175 83.8713L27.8716 83.7728L27.8265 83.6743L27.7824 83.5758L27.7383 83.4773L27.6953 83.3788L27.653 83.2792L27.6118 83.1807L27.5714 83.0812L27.5309 82.9817L27.498 82.8982L26.6059 83.2443L26.6417 83.3353L26.6839 83.4413L26.727 83.5474L26.771 83.6534L26.8161 83.7584L26.8612 83.8634L26.9082 83.9694L26.9561 84.0745L27.0048 84.1795L27.0536 84.2837L27.1034 84.3879L27.1539 84.4921L27.2055 84.5963L27.2581 84.6995L27.3107 84.8027L27.3642 84.9048L27.4196 85.007L27.4751 85.1084L27.5313 85.2105L27.5886 85.3119L27.6467 85.4133L27.7058 85.5136L27.7649 85.6139L27.8259 85.7143L27.8868 85.8138L27.9477 85.9123L28.0105 86.0119L28.0733 86.1104L28.1371 86.2089L28.2019 86.3064L28.2675 86.4031L28.3341 86.4998L28.4017 86.5965L28.4694 86.6921L28.5388 86.7878L28.6083 86.8827L28.6786 86.9773L28.7499 87.0712L28.8212 87.165L28.8935 87.2578L28.9666 87.3507L29.0408 87.4435L29.0812 87.4922L29.8242 86.8882H29.826ZM26.7396 80.2252C26.4627 78.7055 26.4178 77.1733 26.7517 75.6582L25.8164 75.4518C25.4505 77.0683 25.5011 78.7757 25.7977 80.3979L26.7396 80.2244V80.2252ZM27.6599 73.0584C28.3101 71.6784 29.2774 70.3507 30.24 69.1734L29.5017 68.5636C28.496 69.7785 27.4724 71.2112 26.7987 72.6402L27.6599 73.0584ZM32.1238 67.0455L32.1303 67.039L32.2119 66.9527L32.2936 66.8663L32.3761 66.78L32.4596 66.6927L32.543 66.6053L32.6265 66.518L32.711 66.4306L32.7963 66.3425L32.8817 66.2543L32.967 66.1662L33.0533 66.078L33.1406 65.9888L33.228 65.8997L33.3161 65.8105L33.4043 65.7213L33.4935 65.6313L33.5834 65.5403L33.6734 65.4493L33.7634 65.3593L33.8544 65.2683L33.9454 65.1773L34.0382 65.0853L34.1311 64.9933L34.2239 64.9013L34.3177 64.8085L34.4116 64.7156L34.5062 64.6228L34.6011 64.529L34.6968 64.4351L34.7924 64.3413L34.8891 64.2466L34.9858 64.152L35.0833 64.0573L35.1808 63.9616L35.2793 63.866L35.3779 63.7703L35.4774 63.6736L35.4839 63.6679L34.8158 62.9812L34.8093 62.9877L34.7098 63.0843L34.6102 63.181L34.5117 63.2767L34.4132 63.3734L34.3157 63.468L34.2182 63.5637L34.1215 63.6584L34.0248 63.753L33.9292 63.8477L33.8335 63.9415L33.7378 64.0354L33.643 64.1292L33.5491 64.222L33.4553 64.3159L33.3624 64.4087L33.2696 64.5007L33.1768 64.5936L33.0858 64.6856L32.9948 64.7766L32.9038 64.8686L32.8138 64.9596L32.7238 65.0506L32.6347 65.1416L32.5455 65.2316L32.4573 65.3216L32.3692 65.4115L32.281 65.5015L32.1937 65.5907L32.1073 65.6799L32.021 65.769L31.9357 65.8582L31.8504 65.9474L31.7659 66.0355L31.6824 66.1229L31.5979 66.211L31.5144 66.2992L31.4319 66.3865L31.4254 66.3941L32.1234 67.0499V67.0455H32.1238Z" fill="white"/>
</g>
<defs>
<clipPath id="clip0_443:4017">
<rect width="104" height="104" fill="white"/>
</clipPath>
</defs>
</svg>

