<svg width="104" height="104" viewBox="0 0 104 104" fill="none" xmlns="http://www.w3.org/2000/svg">
<g clip-path="url(#clip0_443:4044)">
<path d="M52 104C80.641 104 104 80.64 104 52C104 23.359 80.641 0 52 0C23.359 0 0 23.36 0 52C0 80.64 23.36 104 52 104Z" fill="white"/>
<path d="M52.0001 103.973C80.7115 103.973 103.987 80.698 103.987 51.9866C103.987 23.2752 80.7115 0 52.0001 0C23.2887 0 0.0135193 23.2752 0.0135193 51.9866C0.0135193 80.698 23.2887 103.973 52.0001 103.973Z" fill="#1CC8EE" fill-opacity="0.4"/>
<path d="M53.2038 77.1243C77.2481 77.1243 96.7399 76.0587 96.7399 74.7443C96.7399 73.4298 77.2481 72.3643 53.2038 72.3643C29.1594 72.3643 9.66757 73.4298 9.66757 74.7443C9.66757 76.0587 29.1594 77.1243 53.2038 77.1243Z" fill="#1CC8EE" fill-opacity="0.8"/>
<path d="M18.1181 53.4843H93.1297C95.269 53.4843 97.034 55.2492 97.034 57.3885V68.8342C97.034 70.1446 95.9643 71.2142 94.6539 71.2142H12.1545C3.03563 71.2142 5.14813 53.4843 18.1181 53.4843Z" fill="white"/>
<path d="M49.0854 57.4686C50.518 57.4686 51.6793 57.1453 51.6793 56.7465C51.6793 56.3477 50.518 56.0244 49.0854 56.0244C47.6528 56.0244 46.4915 56.3477 46.4915 56.7465C46.4915 57.1453 47.6528 57.4686 49.0854 57.4686Z" fill="#1CC8EE" fill-opacity="0.8"/>
<path d="M29.0016 53.4845H29.5365V60.0095H29.0016V53.4845Z" fill="#ECF0F1"/>
<path d="M81.3627 53.4844H81.9244V60.0094H81.3627V53.4844Z" fill="#ECF0F1"/>
<path d="M7.10037 61.6407C7.58178 60.0896 8.38392 58.5654 9.48039 57.255H12.7162C13.251 57.255 13.7056 57.7096 13.7056 58.2978V60.6244C13.7056 61.1861 13.251 61.6673 12.7162 61.6673H7.10037V61.6407Z" fill="#F7F9F7"/>
<path d="M97.034 66.8552V68.8075C97.034 70.1178 95.9643 71.1875 94.654 71.1875H12.1546C9.2129 71.1875 7.44795 69.3423 6.83289 66.8552H97.034Z" fill="#ECF0F1"/>
<path d="M7.17978 61.2663C7.63437 59.8757 8.38309 58.5119 9.39933 57.3352H12.4212C12.9292 57.3352 13.3572 57.763 13.3572 58.2712V60.3571C13.3572 60.8651 12.9294 61.2931 12.4212 61.2931H7.17978V61.2663Z" fill="#1CC8EE"/>
<path d="M28.0395 59.8755C32.6125 59.8755 36.3297 63.5927 36.3297 68.1656C36.3297 72.7386 32.6125 76.4558 28.0395 76.4558C23.4666 76.4558 19.7494 72.7386 19.7494 68.1656C19.7494 63.5927 23.4666 59.8755 28.0395 59.8755Z" fill="#1191AD"/>
<path d="M28.0392 63.2184C30.767 63.2184 32.9865 65.4379 32.9865 68.1657C32.9865 70.8935 30.767 73.113 28.0392 73.113C25.3114 73.113 23.0919 70.8935 23.0919 68.1657C23.0919 65.4379 25.3114 63.2184 28.0392 63.2184Z" fill="#ECF0F1"/>
<path d="M28.0392 65.7589C29.3495 65.7589 30.4192 66.8286 30.4192 68.1389C30.4192 69.4493 29.3495 70.5189 28.0392 70.5189C26.7288 70.5189 25.6591 69.4493 25.6591 68.1389C25.6591 66.8286 26.7288 65.7589 28.0392 65.7589Z" fill="white"/>
<path d="M82.6199 59.8755C87.1928 59.8755 90.91 63.5927 90.91 68.1656C90.91 72.7386 87.1928 76.4558 82.6199 76.4558C78.0469 76.4558 74.3297 72.7386 74.3297 68.1656C74.3297 63.5927 78.0469 59.8755 82.6199 59.8755Z" fill="#1191AD"/>
<path d="M82.6195 63.2184C85.3473 63.2184 87.5668 65.4379 87.5668 68.1657C87.5668 70.8935 85.3473 73.113 82.6195 73.113C79.8918 73.113 77.6722 70.8935 77.6722 68.1657C77.6722 65.4379 79.8918 63.2184 82.6195 63.2184Z" fill="#ECF0F1"/>
<path d="M82.6194 65.7587C83.9298 65.7587 84.9994 66.8283 84.9994 68.1387C84.9994 69.449 83.9298 70.5187 82.6194 70.5187C81.309 70.5187 80.2394 69.449 80.2394 68.1387C80.2394 66.8283 81.309 65.7587 82.6194 65.7587Z" fill="white"/>
<path d="M23.3855 53.4843C23.3855 53.4843 31.114 45.1139 37.0508 40.7818C39.1635 39.2308 41.4364 38.4821 44.084 38.4821H69.1949C73.6074 38.4821 80.2394 41.4505 83.502 45.2211L90.6957 53.4845H23.3855V53.4843Z" fill="white"/>
<path d="M46.5985 40.7017H45.1009H42.0524C38.4689 40.7017 30.7138 48.6975 28.2267 51.452C28.093 51.6125 28.0394 51.7996 28.093 52.0137C28.1733 52.201 28.3337 52.3346 28.5476 52.3346H30.0185H51.4388V40.7019H46.5985V40.7017Z" fill="#1CC8EE"/>
<path d="M56.5196 40.7015H66.6013H70.2649C72.3508 40.7015 78.2607 42.7874 80.6141 45.8093L85.0532 51.4519C85.1868 51.6124 85.2671 51.7995 85.1868 52.0136C85.1066 52.2009 84.9193 52.3345 84.7054 52.3345H82.9405H53.8723V44.5526V43.2154V40.7017H56.493H56.5196V40.7015Z" fill="#1CC8EE"/>
<path d="M73.8219 40.7015H75.052V52.5216H73.8219V40.7015Z" fill="#F7F9F7"/>
<path d="M95.857 57.5758H96.98C97.2476 57.5758 97.4346 57.7897 97.4346 58.0304V60.8384C97.4346 61.1059 97.2207 61.293 96.98 61.293H95.857C95.5894 61.293 95.4024 61.0791 95.4024 60.8384V58.0304C95.4022 57.7629 95.6163 57.5758 95.857 57.5758Z" fill="#2D9AA6"/>
<path d="M52.4545 53.4844H53.0162V71.2143H52.4545V53.4844Z" fill="#ECF0F1"/>
<path d="M49.0854 57.2014C50.518 57.2014 51.6793 56.938 51.6793 56.6132C51.6793 56.2883 50.518 56.0249 49.0854 56.0249C47.6528 56.0249 46.4915 56.2883 46.4915 56.6132C46.4915 56.938 47.6528 57.2014 49.0854 57.2014Z" fill="#ECF0F1"/>
<path d="M77.539 57.4686C78.9716 57.4686 80.1329 57.1453 80.1329 56.7465C80.1329 56.3477 78.9716 56.0244 77.539 56.0244C76.1064 56.0244 74.9451 56.3477 74.9451 56.7465C74.9451 57.1453 76.1064 57.4686 77.539 57.4686Z" fill="#1CC8EE" fill-opacity="0.8"/>
<path d="M77.539 57.2013C78.9716 57.2013 80.1329 56.9379 80.1329 56.613C80.1329 56.2881 78.9716 56.0248 77.539 56.0248C76.1064 56.0248 74.9451 56.2881 74.9451 56.613C74.9451 56.9379 76.1064 57.2013 77.539 57.2013Z" fill="#ECF0F1"/>
</g>
<defs>
<clipPath id="clip0_443:4044">
<rect width="104" height="104" fill="white"/>
</clipPath>
</defs>
</svg>

