<?xml version="1.0" encoding="UTF-8" standalone="no"?>
<svg width="90" height="32" viewBox="0 0 90 32" fill="none" xmlns="http://www.w3.org/2000/svg">
<path fill-rule="evenodd" clip-rule="evenodd" d="M56.2563 14.405L54.6266 14.851C53.4913 15.2963 52.4753 16.0653 51.6187 17.235V15.0918L47.5954 15.054V31.8823H51.7819V23.8323C51.7819 22.455 51.946 21.486 52.3135 20.877C52.5952 20.2325 53.1238 19.7058 53.7761 19.2613C54.5066 18.7738 55.2782 18.5308 56.0938 18.5308L57.3916 18.6145L57.3529 14.3228L56.2563 14.405ZM23.4913 31.8808H27.7188V9.95628H23.4913V31.8808ZM40.3196 23.307L39.5078 23.7478L37.3943 24.2745C36.4983 24.396 35.8095 24.5983 35.4017 24.8405C34.7129 25.2858 34.3848 25.8955 34.3848 26.7438C34.3848 27.512 34.5914 28.0358 34.9954 28.4025C35.4017 28.7225 35.89 28.8855 36.4983 28.8855C37.4748 28.8855 38.3284 28.6017 39.1425 28.0358C39.9125 27.4698 40.3196 26.4578 40.3196 25.0043V23.307ZM44.7544 19.5013V31.8815H40.5231V30.1405C39.2215 31.2733 37.3943 31.84 35.0789 31.8815C33.6528 31.84 32.475 31.4378 31.6206 30.708C30.6478 29.8183 30.1611 28.6017 30.2006 27.1098C30.1611 24.962 30.9311 23.467 32.5152 22.5365C33.4523 22.0083 34.6696 21.6468 36.1725 21.4423L39.4265 20.9193C40.075 20.637 40.4008 20.188 40.4008 19.6243C40.3598 18.9368 40.1563 18.45 39.6695 18.2078C39.1827 17.9233 38.4924 17.7595 37.5994 17.8025C36.54 17.7595 35.8095 18.0455 35.3622 18.6145C35.0789 18.9368 34.8321 19.4235 34.7539 20.151H30.5241C30.6478 18.6145 31.0139 17.3973 31.7437 16.4683C32.882 14.9718 34.8739 14.2013 37.7201 14.2435C39.5488 14.2013 41.1731 14.568 42.6365 15.3363C44.0171 16.0645 44.7544 17.4788 44.7544 19.5013ZM10.8905 14.1235C12.1929 14.1235 13.3707 14.4858 14.5091 15.2155C15.5259 15.9038 16.3392 16.8735 16.908 18.0055H21.3376C20.6876 15.6608 19.427 13.7175 17.5155 12.224C15.5677 10.6845 13.3313 9.91628 10.8905 9.95628C7.8446 9.91628 5.32111 10.9675 3.20846 13.1508C1.05481 15.2955 0 17.8425 0 20.877C0 23.8693 1.05481 26.5023 3.20846 28.6448C5.32111 30.7457 7.8446 31.8 10.8905 31.8C13.3313 31.8 15.5677 31.0703 17.5155 29.573C19.427 28.0358 20.6876 26.1363 21.3376 23.79H16.908C16.3392 24.9235 15.5259 25.8502 14.5091 26.58C13.3707 27.2705 12.1929 27.6335 10.8905 27.6335C9.02166 27.6335 7.43756 26.9453 6.13443 25.648C4.79637 24.3153 4.1448 22.741 4.18429 20.877C4.1448 19.0183 4.79637 17.4388 6.13443 16.106C7.43756 14.811 9.02166 14.1235 10.8905 14.1235ZM71.2142 23.1425C71.1717 21.809 70.7251 20.7148 69.8693 19.8258C68.936 18.8975 67.8394 18.45 66.5378 18.4915C65.2787 18.45 64.1806 18.8975 63.2876 19.8258C62.3915 20.7148 61.9032 21.809 61.9032 23.1425C61.9032 24.396 62.3915 25.4888 63.2876 26.42C64.1806 27.3528 65.2787 27.7927 66.5378 27.7927C67.8394 27.7927 68.936 27.3528 69.8298 26.42C70.7251 25.4888 71.1717 24.396 71.2142 23.1425ZM72.7968 16.8735C74.5047 18.6145 75.359 20.7148 75.359 23.1425C75.359 25.5695 74.5047 27.672 72.7968 29.3715C71.0494 31.1125 68.936 32 66.5378 32C64.1404 32 62.065 31.1125 60.3601 29.3715C58.6097 27.672 57.7584 25.5695 57.7584 23.1425C57.7584 20.7148 58.6097 18.6145 60.3601 16.8735C62.065 15.1355 64.1404 14.2828 66.5378 14.2828C68.936 14.2828 71.0494 15.1355 72.7968 16.8735ZM77.963 22.8995H89.1429V19.1383H77.963V22.8995ZM65.1572 10.8853H68.9375V0H65.1572V10.8853ZM86.2981 4.77627L76.0911 14.9303L73.4096 12.2595L83.6137 2.10853L86.2981 4.77627Z" fill="#E3262E"/>
</svg>
