<?xml version="1.0" encoding="UTF-8" standalone="no"?>
<svg width="575" height="288" viewBox="0 0 575 288" fill="none" xmlns="http://www.w3.org/2000/svg">
<path d="M508.609 97.0004C493.559 97.0004 480.203 104.15 471.632 115.187C463.075 104.15 449.708 97.0004 434.655 97.0004C419.597 97.0004 406.233 104.15 397.671 115.187C389.108 104.15 375.741 97.0004 360.688 97.0004C345.631 97.0004 332.26 104.143 323.704 115.187C315.144 104.143 301.777 97.0004 286.741 97.0004C271.669 97.0004 258.303 104.143 249.743 115.187C241.18 104.143 227.816 97.0004 212.765 97.0004C197.708 97.0004 184.347 104.143 175.779 115.187C167.213 104.143 153.855 97.0004 138.804 97.0004C123.744 97.0004 110.385 104.143 101.817 115.187C93.2493 104.143 79.88 97.0004 64.8373 97.0004C38.972 97.0004 18 117.964 18 143.84C18 169.704 38.972 190.663 64.8373 190.663C79.88 190.663 93.2493 183.538 101.817 172.498C110.385 183.538 123.744 190.663 138.804 190.663C153.855 190.663 167.213 183.538 175.779 172.498C184.347 183.538 197.708 190.663 212.765 190.663C227.816 190.663 241.18 183.538 249.743 172.498C258.303 183.538 271.669 190.663 286.741 190.663C301.777 190.663 315.144 183.538 323.704 172.498C332.26 183.538 345.631 190.663 360.688 190.663C375.741 190.663 389.108 183.538 397.671 172.498C406.233 183.538 419.597 190.663 434.655 190.663C449.708 190.663 463.075 183.538 471.632 172.498C480.203 183.538 493.559 190.663 508.609 190.663C534.483 190.663 555.441 169.704 555.441 143.84C555.441 117.964 534.483 97.0004 508.609 97.0004Z" fill="#EC2227"/>
<path d="M434.654 130.121C427.089 130.121 420.924 136.272 420.924 143.837C420.924 151.405 427.089 157.563 434.654 157.563C442.22 157.563 448.368 151.405 448.368 143.837C448.368 136.272 442.22 130.121 434.654 130.121ZM434.654 168.219C421.209 168.219 410.273 157.283 410.273 143.837C410.273 130.392 421.209 119.453 434.654 119.453C448.094 119.453 459.026 130.392 459.026 143.837C459.026 157.283 448.094 168.219 434.654 168.219Z" fill="white"/>
<path d="M508.609 130.121C501.048 130.121 494.898 136.272 494.898 143.837C494.898 151.405 501.048 157.563 508.609 157.563C516.172 157.563 522.317 151.405 522.317 143.837C522.317 136.272 516.172 130.121 508.609 130.121ZM508.609 168.219C495.164 168.219 484.225 157.283 484.225 143.837C484.225 130.392 495.164 119.453 508.609 119.453C522.054 119.453 532.993 130.392 532.993 143.837C532.993 157.283 522.054 168.219 508.609 168.219Z" fill="white"/>
<path d="M138.807 130.121C131.242 130.121 125.091 136.272 125.091 143.837C125.091 151.405 131.242 157.563 138.807 157.563C146.36 157.563 152.506 151.405 152.506 143.837C152.506 136.272 146.36 130.121 138.807 130.121ZM138.807 168.219C125.362 168.219 114.414 157.283 114.414 143.837C114.414 130.392 125.362 119.453 138.807 119.453C152.24 119.453 163.168 130.392 163.168 143.837C163.168 157.283 152.24 168.219 138.807 168.219Z" fill="white"/>
<path d="M64.8374 130.121C57.2748 130.121 51.1121 136.272 51.1121 143.837C51.1121 151.405 57.2748 157.563 64.8374 157.563C72.4054 157.563 78.5534 151.405 78.5534 143.837C78.5534 136.272 72.4054 130.121 64.8374 130.121ZM64.8374 168.219C51.3921 168.219 40.4468 157.283 40.4468 143.837C40.4468 130.392 51.3921 119.453 64.8374 119.453C78.2774 119.453 89.2134 130.392 89.2134 143.837C89.2134 157.283 78.2774 168.219 64.8374 168.219Z" fill="white"/>
<path d="M286.38 130.058C280.761 130.058 275.781 133.421 273.681 138.621L273.621 138.778L299.113 138.803L299.052 138.653C296.989 133.435 292.011 130.058 286.38 130.058ZM287.215 168.17C286.429 168.17 285.696 168.15 284.996 168.094L284.423 168.054L283.649 167.99C271.308 166.622 261.996 156.21 261.996 143.777C261.996 130.319 272.935 119.385 286.38 119.385C299.825 119.385 310.761 130.319 310.761 143.777C310.761 145.409 310.628 146.79 310.316 148.387L273.513 148.373L274.255 150.146C276.215 153.869 279.683 156.446 283.768 157.234C284.955 157.45 286.179 157.563 287.412 157.563L288.027 157.551C291.589 157.45 294.94 156.225 297.237 154.181L297.543 153.902L307.452 159.209L306.997 159.73C302.545 165.105 296.173 167.934 288.067 168.15C287.771 168.158 287.505 168.17 287.215 168.17" fill="white"/>
<path d="M190.175 166.977L190.195 143.834L190.242 142.49C190.943 129.574 201.646 119.459 214.597 119.459C223.866 119.459 232.197 124.621 236.37 132.93L226.961 137.937C224.69 133.187 219.855 130.121 214.597 130.121C207.027 130.121 200.875 136.27 200.875 143.841L200.867 166.977H190.175Z" fill="white"/>
<path d="M360.688 157.562C353.134 157.562 346.986 151.405 346.986 143.837C346.986 136.27 353.134 130.121 360.688 130.121C368.264 130.121 374.421 136.27 374.421 143.837C374.421 151.405 368.264 157.562 360.688 157.562ZM374.413 99.0651L374.384 123.677L373.406 123.065C369.581 120.71 365.19 119.462 360.688 119.462C347.242 119.462 336.297 130.401 336.297 143.837C336.297 157.28 347.242 168.22 360.688 168.22C374.125 168.22 385.06 157.28 385.06 143.837L385.116 103.932C381.794 101.886 378.21 100.234 374.413 99.0651" fill="white"/>
</svg>
