<?xml version="1.0" encoding="UTF-8" standalone="no"?>
<svg
   xmlns:dc="http://purl.org/dc/elements/1.1/"
   xmlns:cc="http://creativecommons.org/ns#"
   xmlns:rdf="http://www.w3.org/1999/02/22-rdf-syntax-ns#"
   xmlns:svg="http://www.w3.org/2000/svg"
   xmlns="http://www.w3.org/2000/svg"
   xmlns:sodipodi="http://sodipodi.sourceforge.net/DTD/sodipodi-0.dtd"
   xmlns:inkscape="http://www.inkscape.org/namespaces/inkscape"
   version="1.1"
   id="svg2"
   xml:space="preserve"
   width="793.70667"
   height="1122.52"
   viewBox="0 0 793.70667 1122.52"
   sodipodi:docname="Ooredoo new logo.ai"><metadata
     id="metadata8"><rdf:RDF><cc:Work
         rdf:about=""><dc:format>image/svg+xml</dc:format><dc:type
           rdf:resource="http://purl.org/dc/dcmitype/StillImage" /></cc:Work></rdf:RDF></metadata><defs
     id="defs6"><clipPath
       clipPathUnits="userSpaceOnUse"
       id="clipPath18"><path
         d="M 0,841.89 H 595.28 V 0 H 0 Z"
         id="path16" /></clipPath></defs><sodipodi:namedview
     pagecolor="#ffffff"
     bordercolor="#666666"
     borderopacity="1"
     objecttolerance="10"
     gridtolerance="10"
     guidetolerance="10"
     inkscape:pageopacity="0"
     inkscape:pageshadow="2"
     inkscape:window-width="640"
     inkscape:window-height="480"
     id="namedview4" /><g
     id="g10"
     inkscape:groupmode="layer"
     inkscape:label="Ooredoo new logo"
     transform="matrix(1.3333333,0,0,-1.3333333,0,1122.52)"><g
       id="g12"><g
         id="g14"
         clip-path="url(#clipPath18)"><g
           id="g20"
           transform="translate(464.7508,455.2746)"><path
             d="M 0,0 C -11.288,0 -21.305,-5.362 -27.733,-13.64 -34.151,-5.362 -44.176,0 -55.466,0 -66.759,0 -76.782,-5.362 -83.204,-13.64 -89.626,-5.362 -99.651,0 -110.941,0 -122.234,0 -132.262,-5.357 -138.679,-13.64 -145.099,-5.357 -155.124,0 -166.401,0 -177.705,0 -187.73,-5.357 -194.15,-13.64 -200.572,-5.357 -210.595,0 -221.883,0 c -11.293,0 -21.314,-5.357 -27.74,-13.64 -6.424,8.283 -16.443,13.64 -27.731,13.64 -11.295,0 -21.314,-5.357 -27.74,-13.64 -6.426,8.283 -16.453,13.64 -27.735,13.64 -19.399,0 -35.128,-15.723 -35.128,-35.13 0,-19.398 15.729,-35.117 35.128,-35.117 11.282,0 21.309,5.344 27.735,13.624 6.426,-8.28 16.445,-13.624 27.74,-13.624 11.288,0 21.307,5.344 27.731,13.624 6.426,-8.28 16.447,-13.624 27.74,-13.624 11.288,0 21.311,5.344 27.733,13.624 6.42,-8.28 16.445,-13.624 27.749,-13.624 11.277,0 21.302,5.344 27.722,13.624 6.417,-8.28 16.445,-13.624 27.738,-13.624 11.29,0 21.315,5.344 27.737,13.624 6.422,-8.28 16.445,-13.624 27.738,-13.624 11.29,0 21.315,5.344 27.733,13.624 6.428,-8.28 16.445,-13.624 27.733,-13.624 19.405,0 35.124,15.719 35.124,35.117 C 35.124,-15.723 19.405,0 0,0"
             style="fill:#ec2227;fill-opacity:1;fill-rule:nonzero;stroke:none"
             id="path22" /></g><g
           id="g24"
           transform="translate(409.2845,430.4338)"><path
             d="m 0,0 c -5.674,0 -10.298,-4.613 -10.298,-10.287 0,-5.676 4.624,-10.294 10.298,-10.294 5.674,0 10.285,4.618 10.285,10.294 C 10.285,-4.613 5.674,0 0,0 m 0,-28.573 c -10.084,0 -18.286,8.202 -18.286,18.286 0,10.084 8.202,18.288 18.286,18.288 10.08,0 18.279,-8.204 18.279,-18.288 0,-10.084 -8.199,-18.286 -18.279,-18.286"
             style="fill:#ffffff;fill-opacity:1;fill-rule:nonzero;stroke:none"
             id="path26" /></g><g
           id="g28"
           transform="translate(464.7508,430.4338)"><path
             d="m 0,0 c -5.671,0 -10.283,-4.613 -10.283,-10.287 0,-5.676 4.612,-10.294 10.283,-10.294 5.672,0 10.281,4.618 10.281,10.294 C 10.281,-4.613 5.672,0 0,0 m 0,-28.573 c -10.084,0 -18.288,8.202 -18.288,18.286 0,10.084 8.204,18.288 18.288,18.288 10.084,0 18.288,-8.204 18.288,-18.288 0,-10.084 -8.204,-18.286 -18.288,-18.286"
             style="fill:#ffffff;fill-opacity:1;fill-rule:nonzero;stroke:none"
             id="path30" /></g><g
           id="g32"
           transform="translate(187.3991,430.4338)"><path
             d="m 0,0 c -5.674,0 -10.287,-4.613 -10.287,-10.287 0,-5.676 4.613,-10.294 10.287,-10.294 5.665,0 10.274,4.618 10.274,10.294 C 10.274,-4.613 5.665,0 0,0 m 0,-28.573 c -10.084,0 -18.295,8.202 -18.295,18.286 0,10.084 8.211,18.288 18.295,18.288 10.075,0 18.271,-8.204 18.271,-18.288 0,-10.084 -8.196,-18.286 -18.271,-18.286"
             style="fill:#ffffff;fill-opacity:1;fill-rule:nonzero;stroke:none"
             id="path34" /></g><g
           id="g36"
           transform="translate(131.9218,430.4338)"><path
             d="m 0,0 c -5.672,0 -10.294,-4.613 -10.294,-10.287 0,-5.676 4.622,-10.294 10.294,-10.294 5.676,0 10.287,4.618 10.287,10.294 C 10.287,-4.613 5.676,0 0,0 m 0,-28.573 c -10.084,0 -18.293,8.202 -18.293,18.286 0,10.084 8.209,18.288 18.293,18.288 10.08,0 18.282,-8.204 18.282,-18.288 0,-10.084 -8.202,-18.286 -18.282,-18.286"
             style="fill:#ffffff;fill-opacity:1;fill-rule:nonzero;stroke:none"
             id="path38" /></g><g
           id="g40"
           transform="translate(298.079,430.4818)"><path
             d="M 0,0 C -4.214,0 -7.949,-2.522 -9.524,-6.422 L -9.569,-6.54 9.55,-6.559 9.504,-6.446 C 7.957,-2.533 4.223,0 0,0 m 0.626,-28.584 c -0.589,0 -1.139,0.015 -1.664,0.057 l -0.43,0.03 -0.58,0.048 c -9.256,1.026 -16.24,8.835 -16.24,18.16 0,10.093 8.204,18.294 18.288,18.294 10.084,0 18.286,-8.201 18.286,-18.294 0,-1.224 -0.1,-2.26 -0.334,-3.458 l -27.602,0.011 0.556,-1.33 c 1.47,-2.792 4.071,-4.725 7.135,-5.316 0.89,-0.162 1.808,-0.247 2.733,-0.247 l 0.461,0.009 c 2.672,0.076 5.185,0.995 6.908,2.528 l 0.229,0.209 7.432,-3.98 -0.341,-0.391 c -3.339,-4.031 -8.118,-6.153 -14.198,-6.315 -0.222,-0.006 -0.421,-0.015 -0.639,-0.015"
             style="fill:#ffffff;fill-opacity:1;fill-rule:nonzero;stroke:none"
             id="path42" /></g><g
           id="g44"
           transform="translate(225.9254,402.7922)"><path
             d="m 0,0 0.015,17.357 0.035,1.008 c 0.526,9.687 8.553,17.273 18.266,17.273 6.952,0 13.2,-3.871 16.33,-10.103 L 27.589,21.78 c -1.703,3.562 -5.329,5.862 -9.273,5.862 -5.677,0 -10.291,-4.612 -10.291,-10.29 L 8.019,0 Z"
             style="fill:#ffffff;fill-opacity:1;fill-rule:nonzero;stroke:none"
             id="path46" /></g><g
           id="g48"
           transform="translate(353.8094,409.8532)"><path
             d="m 0,0 c -5.665,0 -10.276,4.618 -10.276,10.294 0,5.675 4.611,10.287 10.276,10.287 5.682,0 10.3,-4.612 10.3,-10.287 C 10.3,4.618 5.682,0 0,0 M 10.294,43.873 10.272,25.414 9.539,25.873 C 6.67,27.639 3.377,28.575 0,28.575 c -10.084,0 -18.293,-8.204 -18.293,-18.281 0,-10.082 8.209,-18.287 18.293,-18.287 10.078,0 18.279,8.205 18.279,18.287 l 0.042,29.929 c -2.491,1.534 -5.179,2.773 -8.027,3.65"
             style="fill:#ffffff;fill-opacity:1;fill-rule:nonzero;stroke:none"
             id="path50" /></g></g></g></g></svg>
