<svg width="195" height="27" viewBox="0 0 195 27" fill="none" xmlns="http://www.w3.org/2000/svg">
<path fill-rule="evenodd" clip-rule="evenodd" d="M21.1111 0L4.58478 16.4659V3.64033H0V17.588C0 19.2545 0.998607 20.743 2.54349 21.3797C3.05613 21.5912 3.59197 21.6941 4.12201 21.6941C5.19252 21.6941 6.24216 21.2769 7.02968 20.4899L10.7631 16.7698L20.8698 26.8414L24.1115 23.6102L14.0048 13.5409L24.3528 3.23007L21.1111 0ZM118.742 10.7221V16.1018C118.742 18.2221 117.597 19.5533 115.305 19.5533H110.825C110.652 19.5533 110.565 19.4659 110.565 19.2899V7.55034C110.565 7.37432 110.652 7.28806 110.825 7.28806H115.305C117.597 7.28806 118.742 8.60178 118.742 10.7221ZM116.763 10.7221C116.763 9.47833 116.311 9.09249 115.305 9.09249H112.546V17.7477H115.305C116.311 17.7477 116.763 17.363 116.763 16.1017V10.7221ZM126.406 14.7344L129.907 7.55034C129.993 7.37432 129.907 7.28806 129.733 7.28806H128.139C127.965 7.28806 127.878 7.37432 127.792 7.55034L125.416 12.649L123.041 7.55034C122.955 7.37432 122.868 7.28806 122.694 7.28806H121.082C120.909 7.28806 120.823 7.37432 120.909 7.55034L124.429 14.7344V19.2899C124.429 19.4659 124.515 19.5533 124.688 19.5533H126.145C126.319 19.5533 126.406 19.4659 126.406 19.2899V14.7344ZM140.784 7.55034V19.2899C140.784 19.4659 140.699 19.5533 140.525 19.5533H138.554C138.415 19.5533 138.311 19.4997 138.242 19.3598L134.403 10.5811V19.2899C134.403 19.4659 134.316 19.5533 134.143 19.5533H132.689C132.517 19.5533 132.429 19.4659 132.429 19.2899V7.55034C132.429 7.37432 132.517 7.28806 132.689 7.28806H134.662C134.8 7.28806 134.903 7.34051 134.972 7.4804L138.812 16.2416V7.55034C138.812 7.37432 138.899 7.28806 139.072 7.28806H140.525C140.699 7.28806 140.784 7.37432 140.784 7.55034ZM152.63 19.5533H151.204C151.029 19.5533 150.922 19.4123 150.87 19.2199L150.325 17.328H145.998L145.452 19.2199C145.398 19.4123 145.293 19.5533 145.117 19.5533H143.692C143.518 19.5533 143.411 19.4123 143.464 19.2199L146.912 7.56782C146.964 7.39297 147.088 7.28806 147.246 7.28806H149.058C149.217 7.28806 149.339 7.39297 149.391 7.56782L152.858 19.2199C152.911 19.4123 152.805 19.5533 152.63 19.5533ZM149.832 15.611L148.162 9.74062L146.49 15.611H149.832ZM166.559 7.55034V19.2899C166.559 19.4659 166.472 19.5533 166.298 19.5533H164.835C164.659 19.5533 164.573 19.4659 164.573 19.2899V10.5636L162.202 19.2899C162.15 19.4659 162.028 19.5533 161.871 19.5533H160.583C160.425 19.5533 160.302 19.4659 160.251 19.2899L157.882 10.5636V19.2899C157.882 19.4659 157.793 19.5533 157.618 19.5533H156.154C155.981 19.5533 155.893 19.4659 155.893 19.2899V7.55034C155.893 7.37432 155.981 7.28806 156.154 7.28806H158.421C158.596 7.28806 158.716 7.37432 158.77 7.55034L161.209 16.0668L163.683 7.55034C163.736 7.37432 163.858 7.28806 164.032 7.28806H166.298C166.472 7.28806 166.559 7.37432 166.559 7.55034ZM172.171 7.28806H170.723C170.554 7.28806 170.469 7.37432 170.469 7.55034V19.2899C170.469 19.4659 170.554 19.5533 170.723 19.5533H172.171C172.341 19.5533 172.425 19.4659 172.425 19.2899V7.55034C172.425 7.37432 172.341 7.28806 172.171 7.28806ZM184.333 16.2449C184.228 18.452 183.079 19.7311 180.851 19.7311H179.301C176.951 19.7311 175.802 18.3133 175.802 16.0863V10.934C175.802 8.70819 176.951 7.28806 179.301 7.28806H180.851C183.079 7.28806 184.228 8.56827 184.333 10.7591C184.351 10.9865 184.228 11.1089 184.003 11.1089H182.696C182.488 11.1089 182.366 10.9865 182.349 10.7591C182.295 9.51502 181.826 9.09295 180.851 9.09295H179.301C178.239 9.09295 177.787 9.58382 177.787 10.934V16.0863C177.787 17.454 178.239 17.9274 179.301 17.9274H180.851C181.826 17.9274 182.295 17.5239 182.349 16.2449C182.366 16.0339 182.488 15.9126 182.696 15.9126H184.003C184.228 15.9126 184.351 16.0339 184.333 16.2449ZM191.508 19.7311C193.854 19.7311 195 18.3832 195 16.1225C195 13.4233 192.968 12.7739 191.056 12.3716L190.205 12.1967C188.816 11.9157 188.555 11.6359 188.555 10.5131C188.555 9.32148 189.023 9.09295 190.1 9.09295H191.16C192.1 9.09295 192.533 9.49753 192.603 10.5306C192.62 10.7591 192.76 10.8815 192.968 10.8815H194.272C194.48 10.8815 194.601 10.7591 194.584 10.5306C194.462 8.55078 193.35 7.28806 191.16 7.28806H190.1C187.737 7.28806 186.573 8.44585 186.573 10.5131C186.573 12.7389 187.999 13.5632 190.119 14.0016L190.969 14.1765C192.203 14.4388 193.02 14.6499 193.02 16.1225C193.02 17.5239 192.568 17.9274 191.508 17.9274H189.944C188.972 17.9274 188.52 17.5426 188.451 16.4198C188.433 16.2087 188.294 16.0863 188.104 16.0863H186.8C186.573 16.0863 186.452 16.2087 186.469 16.4198C186.573 18.4695 187.737 19.7311 189.944 19.7311H191.508ZM36.4403 21.3309H31.8186V3.55515H36.4403V21.3309ZM83.5781 1.42206H91.8686C96.004 1.42206 99.3665 4.76843 99.3665 8.88374V18.1366C99.3665 22.2496 96.004 25.5971 91.8686 25.5971H83.5781C79.4438 25.5971 76.0802 22.2496 76.0802 18.1366V8.88374C76.0802 4.76843 79.4438 1.42206 83.5781 1.42206ZM91.8687 21.0261C93.4692 21.0261 94.7721 19.7299 94.7721 18.1365V8.88367C94.7721 7.29028 93.4692 5.99405 91.8687 5.99405H83.5782C81.9789 5.99405 80.6748 7.29028 80.6748 8.88367V18.1365C80.6748 19.7299 81.9789 21.0261 83.5782 21.0261H91.8687ZM46.928 1.59982H60.6011C64.726 1.59982 68.0811 4.94651 68.0811 9.0599V18.3148C68.0811 22.4282 64.726 25.7748 60.6011 25.7748H51.8656V21.2035H60.6011C62.1975 21.2035 63.4971 19.9083 63.4971 18.3148V9.0599C63.4971 7.46635 62.1975 6.17 60.6011 6.17H51.5108V15.7244H46.928V1.59982Z" fill="white"/>
</svg>
